<svg width="100" height="100" viewBox="0 0 100 100" fill="none" xmlns="http://www.w3.org/2000/svg">
<g clip-path="url(#clip0)">
<path d="M86.2803 73.3333C86.8096 70.5234 86.796 67.6381 86.2403 64.8333L93.8736 46.4117C93.8744 46.3995 93.8744 46.3872 93.8736 46.375C95.1106 42.9884 96.9233 39.841 99.2319 37.0717C99.8064 36.4649 100.037 35.6102 99.8469 34.7967L96.7169 21.28C96.6797 21.1387 96.6236 21.003 96.5503 20.8767C96.5369 20.8517 96.5319 20.8217 96.5186 20.7983C96.5053 20.775 96.4469 20.7183 96.4136 20.675C96.3454 20.5751 96.2666 20.4829 96.1786 20.4C96.1207 20.3592 96.06 20.3225 95.9969 20.29C95.9157 20.2302 95.8292 20.1777 95.7386 20.1333C95.613 20.0859 95.482 20.054 95.3486 20.0383C95.3103 20.0383 95.277 20.0133 95.2386 20.01C94.9192 19.9887 94.6003 20.0599 94.3203 20.215C94.2953 20.2283 94.2653 20.2333 94.2403 20.2483H94.2236L82.4553 27.5933C81.7426 28.0347 81.3002 28.8053 81.2786 29.6433C80.9517 33.2419 80.0038 36.7567 78.4769 40.0317V40.05L74.6619 49.2717C72.7895 48.2763 70.785 47.5524 68.7086 47.1217C69.4946 41.6966 69.7836 36.211 69.5719 30.7333C72.6745 27.0109 74.1634 22.2044 73.7086 17.38C72.6669 7.66666 63.8886 0.651661 63.5136 0.356661C62.95 -0.0871853 62.1656 -0.120565 61.5663 0.273794C60.967 0.668153 60.6873 1.40176 60.8719 2.09499C61.7303 5.31833 60.9869 8.71999 54.6469 15.715C51.7984 18.4655 50.8955 22.6652 52.3619 26.3433C52.9226 27.7502 53.7259 29.0476 54.7353 30.1767C54.3319 32.7517 54.0153 35.19 53.7969 37.565C53.421 41.4932 53.3241 45.4431 53.5069 49.385C52.0201 50.1911 50.6281 51.161 49.3569 52.2767L41.2736 17.71C41.2736 17.675 41.2403 17.65 41.2303 17.6183C41.2032 17.5072 41.164 17.3993 41.1136 17.2967L32.8569 2.04833C32.0306 0.522116 30.285 -0.262158 28.5952 0.133611C26.9054 0.529381 25.6896 2.00725 25.6269 3.74166L25.0003 21.0667C25.0007 21.1917 25.0147 21.3163 25.0419 21.4383C25.0419 21.465 25.0419 21.4883 25.0419 21.5133L33.2886 56.7083C31.9877 56.7658 30.6963 56.9585 29.4353 57.2833L20.3636 35.375C19.6362 33.7003 17.7068 32.91 16.0136 33.5933L2.14861 39.3333C0.451725 40.0416 -0.354686 41.9873 0.343613 43.6883L12.6469 73.3683C5.43612 73.7469 -0.161099 79.8001 0.0250175 87.0185C0.211134 94.2368 6.11286 99.9935 13.3336 100H86.6669C91.4305 99.9309 95.7953 97.3258 98.1173 93.1659C100.439 89.006 100.366 83.9234 97.924 79.8326C95.4824 75.7418 91.0438 73.2643 86.2803 73.3333ZM84.5819 30.1933L91.5686 25.8333L89.0953 31.8067C88.7427 32.6572 89.1464 33.6325 89.9969 33.985C90.8475 34.3375 91.8227 33.9338 92.1753 33.0833L94.6486 27.11L96.5003 35.1317C94.5192 37.5486 92.8918 40.2349 91.6669 43.11C89.9293 43.9155 87.9339 43.9573 86.1641 43.2253C84.3942 42.4933 83.0113 41.0542 82.3503 39.2567C83.5208 36.3569 84.2723 33.3051 84.5819 30.1933ZM80.7486 43.2783C81.8512 44.6264 83.2821 45.6681 84.9036 46.3033C86.1926 46.8577 87.5789 47.1501 88.9819 47.1633C89.3195 47.1621 89.6567 47.1415 89.9919 47.1017L84.6736 59.935C83.0811 56.4239 80.6176 53.378 77.5169 51.0867L80.7486 43.2783ZM57.9153 31.375L66.2886 31.8867C66.3403 33.4433 66.3219 35.0533 66.2703 36.6883C63.4808 36.8876 60.6775 36.7522 57.9203 36.285C57.7103 36.255 57.5053 36.2317 57.2969 36.2033C57.4636 34.6333 57.667 33.0433 57.9119 31.375H57.9153ZM57.1203 17.9533C61.5453 13.0717 63.8386 9.31666 64.3719 5.78666C67.5526 9.05924 69.6522 13.2293 70.3869 17.7333C70.737 21.6543 69.5246 25.5549 67.0136 28.5867C63.7214 28.3867 60.4653 28.1867 57.2453 27.9867C55.8617 26.6932 55.0658 24.8912 55.0415 22.9974C55.0173 21.1035 55.7669 19.2817 57.1169 17.9533H57.1203ZM56.9936 39.525L57.4769 39.5883C59.6246 39.9205 61.7924 40.1048 63.9653 40.14C64.6553 40.14 65.382 40.085 66.1103 40.0283C65.9586 42.1733 65.7103 44.4133 65.3953 46.7283C64.9836 46.7067 64.5803 46.6667 64.1669 46.6667C61.6506 46.6712 59.1532 47.1011 56.7803 47.9383C56.7034 45.1321 56.7735 42.3239 56.9903 39.525H56.9936ZM44.102 59.015L39.3336 38.7033C39.1107 37.8221 38.2228 37.282 37.3378 37.4893C36.4528 37.6966 35.897 38.5748 36.0886 39.4633L40.3736 57.745C39.1955 57.3237 37.9784 57.0205 36.7403 56.84L29.4253 25.6233C30.45 26.0899 31.5627 26.332 32.6886 26.3333C32.7936 26.3333 32.9053 26.3183 33.0119 26.3133L34.1903 31.345C34.3173 31.9339 34.7522 32.4085 35.3279 32.5862C35.9035 32.764 36.5303 32.6172 36.9672 32.2023C37.4041 31.7874 37.583 31.1691 37.4353 30.585L36.2553 25.55C37.3861 25.0494 38.3834 24.2901 39.167 23.3333L46.6036 55.1317C45.6379 56.3363 44.7995 57.6377 44.102 59.015ZM33.9186 22.8483C31.7871 23.2617 29.6108 22.3903 28.3536 20.62L28.5653 14.75C29.1452 14.8583 29.7337 14.9141 30.3236 14.9167C30.8934 14.9191 31.4616 14.8559 32.0169 14.7283C33.1413 14.4331 34.193 13.91 35.1069 13.1917L37.9136 18.3717C37.5792 20.5209 36.0156 22.2743 33.9186 22.8517V22.8483ZM29.3536 3.37833C29.5806 3.32574 29.8149 3.43063 29.9269 3.63499L33.5003 10.2433C32.8557 10.8265 32.086 11.2541 31.2503 11.4933C30.3962 11.6501 29.5174 11.6085 28.6819 11.3717L28.9536 3.86166C28.9627 3.62877 29.1265 3.43078 29.3536 3.37833ZM17.2919 36.6667L18.5653 39.7433L12.3986 42.2967C11.6675 42.6037 11.254 43.3832 11.4097 44.1607C11.5655 44.9382 12.2474 45.4983 13.0403 45.5C13.2593 45.4995 13.4761 45.4565 13.6786 45.3733L19.8453 42.8183L21.1203 45.8983L18.0353 47.1767C17.3 47.4809 16.8824 48.2625 17.0382 49.0429C17.1939 49.8232 17.8796 50.3846 18.6753 50.3833C18.8937 50.3826 19.1099 50.3396 19.3119 50.2567L22.3969 48.9783L23.6719 52.0583L17.5003 54.6167C16.765 54.9209 16.3474 55.7025 16.5032 56.4829C16.6589 57.2632 17.3446 57.8246 18.1403 57.8233C18.3587 57.8227 18.5749 57.7797 18.7769 57.6967L24.9436 55.1433L26.2919 58.3983C20.8609 60.8773 16.8784 65.7246 15.5003 71.5333L3.42028 42.4067L17.2919 36.6667ZM86.6669 96.6667H13.3336C7.81077 96.6667 3.33361 92.1895 3.33361 86.6667C3.33361 81.1438 7.81077 76.6667 13.3336 76.6667C14.2993 76.6635 15.2602 76.8027 16.1853 77.08C16.685 77.231 17.2266 77.139 17.6486 76.8317C18.0705 76.5243 18.3241 76.0369 18.3336 75.515C18.4522 69.5751 21.8859 64.2015 27.2263 61.5984C32.5668 58.9953 38.915 59.6009 43.667 63.1667C44.0869 63.4792 44.6292 63.5763 45.1315 63.4289C45.6338 63.2814 46.0376 62.9066 46.222 62.4167C49.4781 53.7386 58.4776 48.6341 67.5968 50.2927C76.716 51.9513 83.3417 59.8979 83.3336 69.1667C83.3369 71.0727 83.0531 72.9684 82.4919 74.79C82.3168 75.3567 82.456 75.9739 82.8576 76.4105C83.2592 76.8471 83.8626 77.0373 84.4419 76.91C85.1727 76.7492 85.9187 76.6676 86.6669 76.6667C92.1898 76.6667 96.6669 81.1438 96.6669 86.6667C96.6669 92.1895 92.1898 96.6667 86.6669 96.6667Z" fill="black"/>
<path d="M64.475 26.1666C64.9982 26.1686 65.4919 25.9248 65.8084 25.5083C67.8891 22.692 68.6932 19.1321 68.025 15.6949C67.8829 15.1072 67.4336 14.6426 66.851 14.4808C66.2683 14.3191 65.6438 14.4855 65.219 14.9159C64.7942 15.3462 64.6358 15.9728 64.805 16.5533C65.2041 18.9957 64.6086 21.4961 63.1517 23.4966C62.7729 24.0016 62.712 24.6773 62.9943 25.242C63.2766 25.8066 63.8538 26.1633 64.485 26.1633L64.475 26.1666Z" fill="black"/>
<path d="M62.2841 76.6667C61.0447 76.6705 59.8224 76.9555 58.7091 77.5C55.7109 73.3974 50.1126 72.1956 45.6947 74.7061C41.2768 77.2166 39.4441 82.6412 41.4341 87.3167C41.6959 87.9312 42.2994 88.3301 42.9674 88.33C43.192 88.3306 43.4143 88.2852 43.6208 88.1967C44.0274 88.0234 44.3486 87.6957 44.5137 87.2856C44.6787 86.8756 44.674 86.4167 44.5008 86.01C44.1379 85.1643 43.9508 84.2536 43.9508 83.3334C43.9508 79.6515 46.9355 76.6667 50.6174 76.6667C53.2033 76.6538 55.5585 78.1523 56.6424 80.5C56.6785 80.5543 56.7174 80.6066 56.7591 80.6567C56.7854 80.7139 56.8149 80.7695 56.8474 80.8234C56.8774 80.86 56.9208 80.8767 56.9541 80.9117C57.0323 80.9929 57.1189 81.0655 57.2124 81.1284C57.2957 81.1925 57.385 81.2483 57.4791 81.295C57.5759 81.3356 57.6764 81.3669 57.7791 81.3884C57.8816 81.4153 57.9866 81.4315 58.0924 81.4367C58.3089 81.435 58.5238 81.399 58.7291 81.33C58.7735 81.3219 58.8175 81.3113 58.8608 81.2984C58.9148 81.2634 58.9666 81.225 59.0158 81.1834C59.0758 81.1567 59.1342 81.1267 59.1908 81.0934C60.0662 80.3854 61.1582 79.9994 62.2841 80C64.2328 80.0032 66.0022 81.1383 66.8174 82.9084C67.1994 83.746 68.1881 84.1154 69.0258 83.7334C69.8634 83.3514 70.2328 82.3627 69.8508 81.525C68.4936 78.567 65.5386 76.6697 62.2841 76.6667Z" fill="black"/>
<path d="M29.473 65.085C29.2213 65.1666 23.333 67.2033 23.333 73.3333C23.333 74.2538 24.0792 75 24.9997 75C25.9202 75 26.6663 74.2538 26.6663 73.3333C26.8024 71.0083 28.3321 68.997 30.5363 68.245C31.4108 67.9513 31.8816 67.0044 31.588 66.13C31.2944 65.2555 30.3475 64.7847 29.473 65.0783V65.085Z" fill="black"/>
<path d="M52.929 63.2834C53.0614 63.317 53.1974 63.3338 53.334 63.3334C54.0978 63.3326 54.7634 62.8127 54.949 62.0717C55.7161 58.9595 58.4713 56.7457 61.6757 56.6667C62.5961 56.6644 63.3405 55.9164 63.3382 54.9959C63.3359 54.0754 62.5878 53.3311 61.6673 53.3334C56.9302 53.3963 52.8365 56.6582 51.7173 61.2617C51.4937 62.1546 52.0362 63.0597 52.929 63.2834Z" fill="black"/>
</g>
<defs>
<clipPath id="clip0">
<rect width="100" height="100" fill="white"/>
</clipPath>
</defs>
</svg>
