<svg width="100" height="100" viewBox="0 0 100 100" fill="none" xmlns="http://www.w3.org/2000/svg">
<path d="M50.0763 21.5542C35.9227 21.5542 24.3594 33.1176 24.3594 47.2711C24.3594 54.6717 27.5971 61.7947 33.055 66.6051C37.1253 70.6754 36.7553 79.371 36.6628 79.4635C36.6628 79.9261 36.7553 80.2961 37.1253 80.6661C37.4029 80.9437 37.8654 81.1287 38.2354 81.1287H61.8247C62.2872 81.1287 62.6572 80.9437 62.9348 80.6661C63.2123 80.3886 63.3973 79.9261 63.3973 79.4635C63.3973 79.371 62.9348 70.6754 67.0051 66.6051C67.0976 66.5126 67.1901 66.4201 67.2826 66.3276C72.648 61.4247 75.7932 54.4867 75.7932 47.2711C75.7932 33.1176 64.2299 21.5542 50.0763 21.5542ZM64.8774 64.1999C64.7849 64.2924 64.5999 64.4774 64.5999 64.5699C60.9921 68.4552 60.3446 74.8382 60.2521 77.8909H39.808C39.7155 74.8382 39.068 68.1777 35.1827 64.1999C30.2798 59.9446 27.4121 53.7466 27.4121 47.1786C27.4121 34.6902 37.4954 24.6069 49.9838 24.6069C62.4722 24.6069 72.5555 34.6902 72.5555 47.1786C72.5555 53.7466 69.7803 59.9446 64.8774 64.1999Z" fill="#231F20"/>
<path d="M49.9838 28.1221C49.1512 28.1221 48.4111 28.8621 48.4111 29.6947C48.4111 30.5273 49.1512 31.2673 49.9838 31.2673C59.327 31.2673 66.82 38.8529 66.82 48.1036C66.82 48.9361 67.5601 49.6762 68.3926 49.6762C69.2252 49.6762 69.9653 48.9361 69.9653 48.1036C70.0578 37.0952 61.0846 28.1221 49.9838 28.1221Z" fill="#231F20"/>
<path d="M60.2509 82.8862H39.7144C37.5867 82.8862 35.8291 84.6439 35.8291 86.7715C35.8291 88.8992 37.5867 90.6568 39.7144 90.6568H60.1584C62.3786 90.5643 64.1362 88.8992 64.1362 86.7715C64.1362 84.6439 62.3786 82.8862 60.2509 82.8862ZM60.2509 87.4191H39.7144C39.3444 87.4191 38.9743 87.1415 38.9743 86.679C38.9743 86.2165 39.2519 85.939 39.7144 85.939H60.1584C60.5284 85.939 60.8985 86.2165 60.8985 86.679C60.8985 87.1415 60.621 87.4191 60.2509 87.4191Z" fill="#231F20"/>
<path d="M57.1992 92.2294H42.7681C40.6404 92.2294 38.8828 93.987 38.8828 96.1147C38.8828 98.2423 40.6404 100 42.7681 100H57.1992C59.3268 100 61.0845 98.2423 61.0845 96.1147C61.0845 93.8945 59.3268 92.2294 57.1992 92.2294ZM57.1992 96.7622H42.7681C42.3981 96.7622 42.028 96.4847 42.028 96.0222C42.028 95.5596 42.3056 95.2821 42.7681 95.2821H57.1992C57.5692 95.2821 57.9392 95.5596 57.9392 96.0222C57.9392 96.4847 57.5692 96.7622 57.1992 96.7622Z" fill="#231F20"/>
<path d="M49.9838 13.876C50.9088 13.876 51.5564 13.136 51.5564 12.3034V1.57262C51.5564 0.740056 50.8163 0 49.9838 0C49.1512 0 48.4111 0.740056 48.4111 1.57262V12.3034C48.4111 13.136 49.1512 13.876 49.9838 13.876Z" fill="#231F20"/>
<path d="M76.1628 7.95568C75.4228 7.40064 74.4977 7.67816 74.0352 8.32571L68.1147 17.2064C67.5597 17.9464 67.7447 18.964 68.4847 19.4265C68.7623 19.6116 69.0398 19.7041 69.3173 19.7041C69.8724 19.7041 70.3349 19.4265 70.6124 18.964L76.5329 10.0833C77.0879 9.43579 76.9029 8.41821 76.1628 7.95568Z" fill="#231F20"/>
<path d="M31.2043 19.3339C31.4818 19.3339 31.7593 19.2414 32.0369 19.0564C32.7769 18.5938 32.9619 17.5762 32.4994 16.8362L26.764 7.86302C26.3014 7.12297 25.2839 6.93795 24.5438 7.40049C23.8038 7.86302 23.6187 8.8806 24.0813 9.62065L29.8167 18.5938C30.1867 19.1489 30.6493 19.3339 31.2043 19.3339Z" fill="#231F20"/>
<path d="M20.0111 29.1396L10.6679 24.0517C9.92781 23.6817 8.91023 23.9592 8.5402 24.6993C8.07767 25.4393 8.35519 26.4569 9.18775 26.8269L18.5309 31.9148C18.8085 32.0073 18.9935 32.0998 19.271 32.0998C19.826 32.0998 20.3811 31.8223 20.6586 31.2673C21.0286 30.5272 20.7511 29.5097 20.0111 29.1396Z" fill="#231F20"/>
<path d="M91.5186 24.6993C91.1486 23.9592 90.131 23.6817 89.391 24.0517L79.9553 29.1396C79.2152 29.5097 78.9377 30.5272 79.3077 31.2673C79.5852 31.8223 80.1403 32.0998 80.6953 32.0998C80.9728 32.0998 81.2504 32.0073 81.4354 31.9148L90.8711 26.8269C91.6111 26.4569 91.8886 25.4393 91.5186 24.6993Z" fill="#231F20"/>
</svg>
