<svg width="100" height="100" viewBox="0 0 100 100" fill="none" xmlns="http://www.w3.org/2000/svg">
<g clip-path="url(#clip0)">
<path d="M89.2537 21.1968V15.7823C89.2537 15.1346 88.9824 14.5421 88.5561 14.1159C88.1242 13.6841 87.5373 13.4184 86.8896 13.4184H82.0287C81.3752 13.4184 80.7885 13.6841 80.3566 14.1159C79.9303 14.5423 79.6645 15.1346 79.6645 15.7823V21.1969H89.2537V21.1968ZM28.0201 47.5223C27.45 46.9468 27.45 46.022 28.0201 45.4516C28.5904 44.8761 29.5205 44.8761 30.0908 45.4516L31.4252 46.786L35.1291 43.0766C35.6994 42.5063 36.6295 42.5063 37.1998 43.0766C37.7756 43.6524 37.7756 44.577 37.1998 45.1528L32.4607 49.8921C31.8902 50.4624 30.9602 50.4624 30.3898 49.8921L28.0201 47.5223ZM82.992 30.6198C82.992 29.8114 83.6453 29.1526 84.4592 29.1526C85.2676 29.1526 85.9207 29.8114 85.9207 30.6198V61.3636C85.9207 62.1718 85.2674 62.8307 84.4592 62.8307C83.6453 62.8307 82.992 62.1718 82.992 61.3636V30.6198ZM59.8992 80.1819H68.9127V73.8979H59.8992V80.1819ZM70.3742 83.1106C54.4514 83.1106 38.5227 83.1106 22.5998 83.1106C21.7914 83.1106 21.1326 82.4516 21.1326 81.6432V72.4307C21.1326 71.6223 21.7914 70.9692 22.5998 70.9692H33.0805V62.6202C33.0805 61.812 33.7338 61.1589 34.542 61.1589H46.4896C47.298 61.1589 47.9514 61.8122 47.9514 62.6202V65.2223H58.4318C59.2402 65.2223 59.899 65.8811 59.899 66.6895V70.9692H70.374C71.1824 70.9692 71.8412 71.6225 71.8412 72.4307V81.6432C71.8414 82.4516 71.1826 83.1106 70.3742 83.1106ZM47.9516 80.1819H56.965V68.1567H47.9516V80.1819ZM36.0094 80.1819H45.0227V66.6895V64.0876H36.0094V80.1819ZM24.0615 80.1819H33.0807V73.8979H24.0615V80.1819ZM17.8828 29.1528H76.7303V22.6585V15.7823C76.7303 14.3262 77.3281 13.0032 78.2859 12.0452C79.2438 11.0874 80.567 10.4893 82.0287 10.4893H86.8896C88.3457 10.4893 89.6689 11.0874 90.6268 12.0452C91.5846 13.003 92.1824 14.3262 92.1824 15.7823V22.6585V29.1528H98.5383C99.3467 29.1528 99.9998 29.8116 99.9998 30.62V88.0489C99.9998 88.8573 99.3465 89.5106 98.5383 89.5106H57.9836C57.1752 89.5106 56.5221 88.8571 56.5221 88.0489C56.5221 87.2407 57.1754 86.5817 57.9836 86.5817H97.0713V32.0815H92.1826V42.6727C92.1826 43.4811 91.5236 44.1399 90.7154 44.1399C89.907 44.1399 89.2537 43.4811 89.2537 42.6727V30.62V24.1259H79.6645V30.62V67.8579H89.2537V49.3108C89.2537 48.5024 89.907 47.8436 90.7154 47.8436C91.5236 47.8436 92.1826 48.5024 92.1826 49.3108V69.3194C92.1826 69.6737 92.0885 69.8511 91.9334 70.1499L85.7658 82.2968C85.6275 82.5681 85.4061 82.8005 85.1125 82.9501C84.3928 83.3155 83.518 83.022 83.1525 82.3024L76.9627 70.1223C76.8187 69.829 76.7303 69.663 76.7303 69.3196V32.0815H17.8828V43.1653C17.8828 43.9737 17.2295 44.6327 16.4211 44.6327C15.6127 44.6327 14.9539 43.9737 14.9539 43.1653V30.62V14.603C13.6971 13.8171 12.2799 13.4184 10.7961 13.4184C8.62578 13.4184 6.66035 14.2987 5.23184 15.7216C3.80898 17.1499 2.92852 19.1153 2.92852 21.2856V71.3237C3.00605 71.2405 3.08359 71.1575 3.16094 71.0802C5.11543 69.1257 7.81719 67.9188 10.7959 67.9188C11.9863 67.9188 13.1379 68.1182 14.2285 68.478C14.4723 68.561 14.7158 68.6552 14.9537 68.7548V49.8038C14.9537 48.9954 15.6125 48.3366 16.4209 48.3366C17.2293 48.3366 17.8826 48.9954 17.8826 49.8038V71.2684C17.8826 71.5729 17.783 71.8829 17.5836 72.1489C17.102 72.7911 16.1828 72.9182 15.5352 72.4311C14.8652 71.922 14.1066 71.5177 13.2984 71.2518C12.5234 70.9917 11.6818 70.8477 10.7961 70.8477C8.62578 70.8477 6.66035 71.7282 5.23184 73.1511C3.80898 74.5737 2.92852 76.5448 2.92852 78.7149C2.92852 80.8909 3.80879 82.8561 5.23184 84.279C6.66016 85.7018 8.62559 86.5821 10.7961 86.5821H51.3508C52.1592 86.5821 52.8123 87.2411 52.8123 88.0493C52.8123 88.8577 52.159 89.511 51.3508 89.511H10.7961C7.81738 89.511 5.11562 88.304 3.16113 86.3497C1.20684 84.3952 0 81.6989 0 78.7147V21.2854C0 18.3067 1.20684 15.605 3.16113 13.6507C5.11562 11.6962 7.81738 10.4891 10.7961 10.4891C13.1047 10.4891 15.3746 11.2421 17.2293 12.6153C17.6225 12.8809 17.8826 13.3294 17.8826 13.8389V29.1528H17.8828ZM88.3346 70.7866H80.5781L84.4592 78.4214L88.3346 70.7866ZM68.7576 38.0276C69.566 38.0276 70.2191 38.6864 70.2191 39.4948C70.2191 40.3032 69.5658 40.9563 68.7576 40.9563H48.9314C48.123 40.9563 47.4699 40.303 47.4699 39.4948C47.4699 38.6864 48.1232 38.0276 48.9314 38.0276H68.7576ZM60.5139 52.0126C61.3277 52.0126 61.9811 52.6659 61.9811 53.4741C61.9811 54.2823 61.3277 54.9413 60.5139 54.9413H48.9316C48.1232 54.9413 47.4701 54.2825 47.4701 53.4741C47.4701 52.6657 48.1234 52.0126 48.9316 52.0126H60.5139ZM68.7576 45.02C69.566 45.02 70.2191 45.6735 70.2191 46.4872C70.2191 47.2956 69.5658 47.9489 68.7576 47.9489H48.9314C48.123 47.9489 47.4699 47.2954 47.4699 46.4872C47.4699 45.6735 48.1232 45.02 48.9314 45.02H68.7576ZM24.2221 36.6268H41.0031C41.8115 36.6268 42.4646 37.2856 42.4646 38.094V54.8749C42.4646 55.6833 41.8113 56.3421 41.0031 56.3421H24.2221C23.4082 56.3421 22.7549 55.6833 22.7549 54.8749V38.094C22.7549 37.2856 23.4082 36.6268 24.2221 36.6268ZM39.5361 39.5612H25.6838V53.4134H39.5361V39.5612Z" fill="black"/>
</g>
<defs>
<clipPath id="clip0">
<rect width="100" height="100" fill="white"/>
</clipPath>
</defs>
</svg>
