<svg width="100" height="100" viewBox="0 0 100 100" fill="none" xmlns="http://www.w3.org/2000/svg">
<path d="M39.4554 70.0785C39.0777 70.0785 38.6972 69.9486 38.3867 69.6842L27.7035 60.5874C27.3349 60.2733 27.123 59.8145 27.123 59.3299C27.123 58.8462 27.3359 58.3874 27.7035 58.0732L38.3867 48.9765C39.0804 48.385 40.1224 48.4689 40.7139 49.1626C41.3044 49.8572 41.2215 50.8992 40.5268 51.4897L31.3204 59.3299L40.5268 67.17C41.2215 67.7615 41.3044 68.8035 40.7139 69.4972C40.3868 69.8814 39.9225 70.0785 39.4554 70.0785Z" fill="black"/>
<path d="M60.5453 70.0785C60.0782 70.0785 59.6139 69.8814 59.2878 69.4972C58.6963 68.8035 58.7801 67.7615 59.4739 67.17L68.6803 59.3299L59.4739 51.4897C58.7801 50.8992 58.6963 49.8572 59.2878 49.1626C59.8783 48.4689 60.9212 48.385 61.614 48.9765L72.2972 58.0732C72.6657 58.3874 72.8776 58.8462 72.8776 59.3299C72.8776 59.8145 72.6657 60.2733 72.2972 60.5874L61.614 69.6842C61.3035 69.9486 60.923 70.0785 60.5453 70.0785Z" fill="black"/>
<path d="M46.218 76.9015C46.1047 76.9015 45.9904 76.8896 45.8753 76.8656C44.9835 76.6777 44.4123 75.8015 44.6002 74.9097L51.2583 43.2977C51.4463 42.4058 52.3215 41.8347 53.2142 42.0226C54.106 42.2105 54.6772 43.0858 54.4893 43.9785L47.8312 75.5906C47.6672 76.3681 46.9817 76.9015 46.218 76.9015Z" fill="black"/>
<path d="M88.9151 94.1241H11.0849C4.9731 94.1241 0 89.1519 0 83.0392V16.9811C0 10.8693 4.9731 5.89624 11.0849 5.89624H88.9151C95.0269 5.89624 100 10.8693 100 16.9811V83.0392C100 89.1519 95.0269 94.1241 88.9151 94.1241ZM11.0849 9.19813C6.79356 9.19813 3.30189 12.6898 3.30189 16.9811V83.0392C3.30189 87.3305 6.79356 90.8222 11.0849 90.8222H88.9151C93.2064 90.8222 96.6981 87.3305 96.6981 83.0392V16.9811C96.6981 12.6898 93.2064 9.19813 88.9151 9.19813H11.0849Z" fill="black"/>
<path d="M98.3491 32.3325H1.65094C0.738871 32.3325 0 31.5937 0 30.6816C0 29.7704 0.738871 29.0306 1.65094 29.0306H98.3491C99.2611 29.0306 100 29.7704 100 30.6816C100 31.5937 99.2611 32.3325 98.3491 32.3325Z" fill="black"/>
<path d="M28.208 24.4325C25.3281 24.4325 22.9834 22.0878 22.9834 19.2079C22.9834 16.327 25.3281 13.9833 28.208 13.9833C31.0889 13.9833 33.4326 16.327 33.4326 19.2079C33.4326 22.0878 31.0889 24.4325 28.208 24.4325ZM28.208 17.2852C27.1485 17.2852 26.2853 18.1475 26.2853 19.2079C26.2853 20.2683 27.1485 21.1306 28.208 21.1306C29.2684 21.1306 30.1307 20.2683 30.1307 19.2079C30.1307 18.1475 29.2684 17.2852 28.208 17.2852Z" fill="black"/>
<path d="M12.1553 24.3818C9.27441 24.3818 6.93066 22.0381 6.93066 19.1572C6.93066 16.2764 9.27441 13.9326 12.1553 13.9326C15.0361 13.9326 17.3799 16.2764 17.3799 19.1572C17.3799 22.0381 15.0361 24.3818 12.1553 24.3818ZM12.1553 17.2345C11.0958 17.2345 10.2326 18.0977 10.2326 19.1572C10.2326 20.2176 11.0958 21.0799 12.1553 21.0799C13.2157 21.0799 14.078 20.2176 14.078 19.1572C14.078 18.0977 13.2157 17.2345 12.1553 17.2345Z" fill="black"/>
<path d="M44.2608 24.4822C41.3809 24.4822 39.0371 22.1385 39.0371 19.2576C39.0371 16.3777 41.3809 14.0339 44.2608 14.0339C47.1417 14.0339 49.4854 16.3777 49.4854 19.2576C49.4854 22.1385 47.1417 24.4822 44.2608 24.4822ZM44.2608 17.3349C43.2013 17.3349 42.339 18.1972 42.339 19.2576C42.339 20.318 43.2013 21.1803 44.2608 21.1803C45.3212 21.1803 46.1835 20.318 46.1835 19.2576C46.1835 18.1972 45.3212 17.3349 44.2608 17.3349Z" fill="black"/>
</svg>
